<?xml version="1.0" standalone="no"?>
<!DOCTYPE svg PUBLIC "-//W3C//DTD SVG 20010904//EN"
 "http://www.w3.org/TR/2001/REC-SVG-20010904/DTD/svg10.dtd">
<svg version="1.0" xmlns="http://www.w3.org/2000/svg"
 width="700.000000pt" height="700.000000pt" viewBox="0 0 700.000000 700.000000"
 preserveAspectRatio="xMidYMid meet">
<metadata>
Created by potrace 1.11, written by Peter Selinger 2001-2013
</metadata>
<g transform="translate(0.000000,700.000000) scale(0.100000,-0.100000)"
fill="#000000" stroke="none">
<path d="M0 3500 l0 -3500 3500 0 3500 0 0 3500 0 3500 -3500 0 -3500 0 0
-3500z m4408 2455 c525 -75 944 -507 1001 -1033 6 -56 11 -215 11 -352 l0
-250 154 0 c125 0 166 -4 217 -20 147 -45 255 -150 315 -306 18 -47 19 -104
22 -1269 2 -814 -1 -1243 -8 -1290 -29 -197 -192 -363 -386 -395 -80 -13
-2918 -13 -2999 0 -168 27 -313 155 -373 329 -13 39 -16 125 -19 593 l-4 548
-27 -1 c-24 0 -32 -11 -70 -88 -77 -157 -192 -270 -357 -351 -136 -66 -222
-84 -384 -78 -107 4 -139 10 -213 35 -216 75 -379 222 -473 426 -52 113 -68
193 -68 332 1 218 70 386 225 543 156 158 337 234 558 236 141 1 228 -18 356
-81 161 -77 292 -209 369 -371 29 -61 38 -72 60 -72 l25 0 0 408 c0 224 5 436
10 471 25 175 157 328 329 381 61 19 98 20 1178 20 l1115 0 -5 293 c-5 324
-11 366 -73 494 -88 183 -250 320 -454 385 -108 33 -302 33 -410 0 -230 -72
-408 -241 -485 -460 -18 -51 -45 -195 -45 -239 0 -2 -101 -3 -225 -3 -173 0
-225 3 -225 13 0 6 5 55 10 107 42 395 273 736 623 921 228 119 468 160 725
124z m-1828 -170 l0 -145 -840 0 -840 0 0 145 0 145 840 0 840 0 0 -145z
m-562 -487 l3 -148 -561 0 -560 0 0 143 c0 79 3 147 7 150 3 4 254 6 557 5
l551 -3 3 -147z m-558 -483 l0 -145 -280 0 -280 0 0 145 0 145 280 0 280 0 0
-145z"/>
<path d="M2820 3445 l0 -405 420 0 420 0 0 -265 0 -265 -135 0 -135 0 0 -260
0 -260 -265 0 -265 0 0 260 c0 253 -1 260 -20 260 -20 0 -20 -7 -20 -505 l0
-505 1415 0 1415 0 0 1175 0 1175 -1415 0 -1415 0 0 -405z m1557 -321 c113
-32 232 -136 284 -248 146 -312 -81 -666 -426 -666 -164 0 -313 82 -400 219
-109 174 -89 405 48 557 127 141 307 191 494 138z"/>
<path d="M1470 3031 c-136 -42 -213 -165 -188 -302 23 -125 128 -211 260 -211
230 0 343 277 180 445 -60 61 -173 92 -252 68z"/>
</g>
</svg>
